<svg xmlns="http://www.w3.org/2000/svg" viewBox="0 0 361.75 332.99"><defs><style>.cls-1{isolation:isolate;}.cls-2,.cls-4,.cls-6{fill:#00a2de;}.cls-10,.cls-2,.cls-4,.cls-7{stroke:#231815;stroke-width:3px;}.cls-2{stroke-miterlimit:10;}.cls-3{fill:#231815;}.cls-10,.cls-4,.cls-7{stroke-linecap:round;stroke-linejoin:round;}.cls-5,.cls-7,.cls-8{fill:#fff;}.cls-5{fill-rule:evenodd;}.cls-9{fill:#d2d2d3;mix-blend-mode:multiply;}.cls-10{fill:none;}</style></defs><title>资源 12</title><g class="cls-1"><g id="图层_2" data-name="图层 2"><g id="图层_1-2" data-name="图层 1"><path class="cls-2" d="M156.14,283.87s-28,30.76-45.12,15c-5.16-4.75-6.84-10.25-18.46-9.57l4.78-6.84s6.15-2.05,15,4.78c7.29,5.61,19.14,8.89,28.71-11.62Z"/><path class="cls-3" d="M86.77,295.12c7,2.4,14-4.41,14.9-11.77S97.11,269.92,89.76,269c-9.23-1.15-22.17,11.35-14.76,11.21C79.5,280.13,77.23,291.85,86.77,295.12Z"/><path class="cls-4" d="M251.84,210s6.84,24.61,20.51,42.38c0,0,12.62,12.28,5.88,20.19-7.72,9.06-23-1-23-1s-21.74-8.42-27-33.29"/><path class="cls-3" d="M261.88,274.25s13.72-3.23,12.59-18.47c0,0,11.63,11.4,2,17.83C268.25,279.08,261.88,274.25,261.88,274.25Z"/><path class="cls-4" d="M147.26,222.35s-11.79,9.52-13,38.28c-.68,16.41-1.37,24.61-1.37,24.61s2.73,19.82,9.57,32.13c7.66,13.8,24.12,18.92,32.81,8.89,8.89-10.25,17.09-15,17.09-15s10.25-.68,14.35-1.37c1.35-.22,7.38,7.63,13,14.35,10.25,12.3,25.34,7.27,33.49-12.3,3.42-8.2,9.57-24.61,10.94-52.63,1.07-21.86-10.25-52-10.25-52S192.37,217.56,147.26,222.35Z"/><path class="cls-4" d="M154.09,255.84s-6.84,4.1-8.2,18.46c0,0-1.86,14.18-14.35,12.3-13.67-2.05-13.67-19.14-13.67-19.14s-4.78-26,25.29-47.17"/><path class="cls-3" d="M118.55,272.93s17.09,10.94,26.66.68c0,0-3.64,19.55-19.14,10.94C119.91,281.13,118.55,272.93,118.55,272.93Z"/><path class="cls-3" d="M150.67,321.46c-7.43-3-8.89-6.84-8.89-6.84,1.37,8.2,10.94,16.41,22.56,16.41,7.79,0,13.17-7.91,17.77-10.94C173.72,324.89,157.51,324.2,150.67,321.46Z"/><path class="cls-3" d="M217,320.78c1.67,2.58,8.89,10.94,17.09,9.57,10.81-1.8,15.72-8.89,19.14-18.46C243,327.62,220.4,321.46,217,320.78Z"/><path class="cls-5" d="M233.75,253.5a17.93,17.93,0,1,1-19.51-16.2A17.92,17.92,0,0,1,233.75,253.5Z"/><path class="cls-6" d="M228.85,247.93a.27.27,0,0,0-.33-.11c-.34.09-4.08,7-12.75,7.21h0a16,16,0,0,1-4.58-.35l-.86-2.4a1.5,1.5,0,0,0-.76-.87c-.41-.19-.64-.12-.69-.06a.15.15,0,0,0,0,.12l.48,2.64a17.53,17.53,0,0,1-6.89-5.14.26.26,0,0,0-.32.14.47.47,0,0,0,0,.34,13.72,13.72,0,0,0,7.77,7.87l1.24,6.39a2.78,2.78,0,0,0,3,2.76l4.77-.21a2.86,2.86,0,0,0,2.76-3l.64-5.35s0-.07,0-.1-.47,0-1.29.63A3.39,3.39,0,0,0,220,260s-.81,2.25-1,3.2a1.29,1.29,0,0,1-1.32,1l-2.55.11a.89.89,0,0,1-1-.72L212.25,258a15,15,0,0,0,3.67.28h0a13.85,13.85,0,0,0,12.95-10A.51.51,0,0,0,228.85,247.93Z"/><path class="cls-4" d="M271.14,31.17s38.31,1.61,51.55-26.91a4.11,4.11,0,0,1,7.05-.73C337.46,14,349,39.15,318.69,73.7,269,130.4,271.14,31.17,271.14,31.17Z"/><path class="cls-2" d="M46.88,100.43S59.41,26.64,148.49,6.8C241.84-14,304.48,30.26,317,71.94c0,0,55.63,31,40.71,81.85s-158,78-239.62,73.16S1.41,138.65,46.88,100.43Z"/><path class="cls-7" d="M30.37,124.6s-8.89,8.89-13,17.77c-4,8.62-6.84,21.87,1.37,29.39,13.19,12.09,23.24-7.52,24.61-19.14"/><path class="cls-6" d="M31,125.28s-20.31,17.65-9.57,35.55c8.2,13.67,24.74-6.51,23.24-15"/><path class="cls-4" d="M69,60.86S30.39,65.72,10.09,43.43a3.82,3.82,0,0,0-6.54,1.73C.38,59-3.72,92.46,30.37,112.29,68,134.17,74.23,62.17,69,60.86Z"/><path class="cls-8" d="M324.85,79.24C288.24,68.84,187.32,87.41,127.43,110c-68.06,25.71-86.21,62.77-87.28,71.77,14.31,23.27,41.73,42,78.94,44.22C199.7,230.77,341,204,355.72,153.77,366.54,116.94,339.83,90.63,324.85,79.24Z"/><path class="cls-9" d="M192.69,132.13c6.91,7,4.65,20.57-5,30.4s-23.16,12.17-30.08,5.21-4.66-20.57,5-30.4S185.77,125.17,192.69,132.13Z"/><path class="cls-9" d="M297.36,107.78c-8,2.39-15.61,12-10.34,26.08,4.32,11.51,14.32,18.2,22.28,15.81s13.18-13.57,9.85-25.4S305.31,105.39,297.36,107.78Z"/><circle class="cls-3" cx="174.81" cy="70.32" r="14.03"/><circle class="cls-8" cx="182.12" cy="66.88" r="3.15"/><circle class="cls-3" cx="243.17" cy="58.02" r="14.03"/><circle class="cls-8" cx="250.48" cy="54.57" r="3.15"/><path class="cls-10" d="M232.88,184.88s-24.1,5.34-32.3-9.69"/><path class="cls-4" d="M192.37,311.21s17.09-1.37,26-4.1"/></g></g></g></svg>