<svg xmlns="http://www.w3.org/2000/svg" viewBox="0 0 361.75 329.77"><defs><style>.cls-1{isolation:isolate;}.cls-11,.cls-2,.cls-4,.cls-6{fill:#00a2de;}.cls-10,.cls-11,.cls-2,.cls-4,.cls-7{stroke:#231815;}.cls-2{stroke-miterlimit:10;}.cls-10,.cls-2,.cls-4,.cls-7{stroke-width:3px;}.cls-3{fill:#231815;}.cls-10,.cls-11,.cls-4,.cls-7{stroke-linecap:round;stroke-linejoin:round;}.cls-5,.cls-7,.cls-8{fill:#fff;}.cls-5{fill-rule:evenodd;}.cls-9{fill:#d2d2d3;mix-blend-mode:multiply;}.cls-10{fill:none;}.cls-11{stroke-width:6px;}</style></defs><title>资源 13</title><g class="cls-1"><g id="图层_2" data-name="图层 2"><g id="图层_1-2" data-name="图层 1"><path class="cls-2" d="M143,292S81.29,332.7,77.37,285.4l11.93-3.77s-1.93,4.85.23,8.78c4.34,7.9,16.75,15.16,35.59-6.63Z"/><path class="cls-3" d="M70.26,277.51c.69,7.39,9.78,11,16.85,8.76s9.81-9.52,8.2-16.76c-1.37-6.15-10.38-17.8-14.35-9.57C79,264,69.33,267.46,70.26,277.51Z"/><path class="cls-4" d="M140.42,225.77s-27.51,17-28.71,45.8c-.68,16.41,8.2,25.29,8.2,25.29s-5.47,7.52-10.94,9.57c-7.32,2.74-9.57,10.25,6.84,15,32.82,9.57,70.41-15.72,70.41-15.72a43.51,43.51,0,0,1,16.41,2.05c10.25,3.42,15,8.2,28,17.09,13.93,9.53,22.6-2.65,24.61-17.09a111.61,111.61,0,0,0,0-28s8.89-15,9.57-39c.49-17.1-7.52-38.28-7.52-38.28S185.54,221,140.42,225.77Z"/><path class="cls-3" d="M114.44,312.58a13.51,13.51,0,0,1-.68-8.89l-3.42,2.05c-12.3,3.42-6.8,12.38,5.47,15.72,7.52,2.05,4.1.68,12.3,1.37C118.55,321.46,115.65,315.39,114.44,312.58Z"/><path class="cls-3" d="M225.87,321.46c1.67,2.58,9.83,6.42,14.35,6.84,5.15.47,15-9.57,15-21.19C245,322.83,229.28,322.15,225.87,321.46Z"/><path class="cls-5" d="M231,251.45a17.93,17.93,0,1,1-19.51-16.2A17.92,17.92,0,0,1,231,251.45Z"/><path class="cls-6" d="M226.12,245.88a.27.27,0,0,0-.33-.11c-.34.09-4.08,7-12.75,7.21h0a16,16,0,0,1-4.58-.35l-.86-2.4a1.5,1.5,0,0,0-.76-.87c-.41-.19-.64-.12-.69-.06a.15.15,0,0,0,0,.12l.48,2.64a17.53,17.53,0,0,1-6.89-5.14.26.26,0,0,0-.32.14.47.47,0,0,0,0,.34,13.72,13.72,0,0,0,7.77,7.87l1.24,6.39a2.78,2.78,0,0,0,3,2.76l4.77-.21a2.86,2.86,0,0,0,2.76-3l.64-5.35s0-.07,0-.1-.47,0-1.29.63a3.39,3.39,0,0,0-1.05,1.57s-.81,2.25-1,3.2a1.29,1.29,0,0,1-1.32,1l-2.55.11a.89.89,0,0,1-1-.72L209.52,256a15,15,0,0,0,3.67.28h0a13.85,13.85,0,0,0,12.95-10A.51.51,0,0,0,226.12,245.88Z"/><path class="cls-4" d="M157.77,234.65s-3.37,20.9,18.87,34.38c0,0,14.15,5.39,6.74,13.48s-21.57,4.72-21.57,4.72-24.13-4.73-34.39-28"/><path class="cls-3" d="M170.5,286.94s10.94-7.18,6.15-18.11c0,0,15,5.47,6.84,13.67S170.5,286.94,170.5,286.94Z"/><path class="cls-4" d="M271.14,31.17s38.31,1.61,51.55-26.91a4.11,4.11,0,0,1,7.05-.73C337.46,14,349,39.15,318.69,73.7,269,130.4,271.14,31.17,271.14,31.17Z"/><path class="cls-2" d="M46.88,100.43S59.41,26.64,148.49,6.8C241.84-14,304.48,30.26,317,71.94c0,0,55.63,31,40.71,81.85s-158,78-239.62,73.16S1.41,138.65,46.88,100.43Z"/><path class="cls-7" d="M30.37,124.6a65.12,65.12,0,0,0-14.18,12c-6.15,7.18-10.42,18.8-2.91,26.32,13.37,13.37,28-.68,29.39-12.3"/><path class="cls-6" d="M33.78,121.86s-24.93,18-13.67,34.86c8.2,12.3,29.39-3.42,25.16-12.63"/><path class="cls-4" d="M69,60.86S30.39,65.72,10.09,43.43a3.82,3.82,0,0,0-6.54,1.73C.38,59-3.72,92.46,30.37,112.29,68,134.17,74.23,62.17,69,60.86Z"/><path class="cls-8" d="M324.85,79.24C288.24,68.84,187.32,87.41,127.43,110c-68.06,25.71-86.21,62.77-87.28,71.77,14.31,23.27,41.73,42,78.94,44.22C199.7,230.77,341,204,355.72,153.77,366.54,116.94,339.83,90.63,324.85,79.24Z"/><path class="cls-9" d="M194,133.53c5.95,7.34,2,20.55-8.84,29.51s-24.43,10.27-30.38,2.93-2-20.56,8.84-29.51S188,126.2,194,133.53Z"/><path class="cls-9" d="M296,108.16c-7.78,2.89-12.73,15.1-8.65,26.69s15.45,17.25,23.24,14.35,12.28-14.38,8.2-26S303.82,105.28,296,108.16Z"/><circle class="cls-3" cx="174.81" cy="70.32" r="14.03"/><circle class="cls-8" cx="182.12" cy="66.88" r="3.15"/><path class="cls-10" d="M230.14,184.19s-24.1,5.34-32.3-9.69"/><path class="cls-11" d="M254.21,55.85s-6.6,7.73-27.46,6.25"/></g></g></g></svg>