<svg xmlns="http://www.w3.org/2000/svg" viewBox="0 0 361.75 338.01"><defs><style>.cls-1{isolation:isolate;}.cls-2,.cls-4,.cls-6{fill:#00a2de;}.cls-10,.cls-2,.cls-4,.cls-7{stroke:#231815;stroke-width:3px;}.cls-2{stroke-miterlimit:10;}.cls-3{fill:#231815;}.cls-10,.cls-4,.cls-7{stroke-linecap:round;stroke-linejoin:round;}.cls-5,.cls-7,.cls-8{fill:#fff;}.cls-5{fill-rule:evenodd;}.cls-9{fill:#d2d2d3;mix-blend-mode:multiply;}.cls-10{fill:none;}</style></defs><title>资源 14</title><g class="cls-1"><g id="图层_2" data-name="图层 2"><g id="图层_1-2" data-name="图层 1"><path class="cls-2" d="M141.1,283.87s-28,30.76-45.12,15c-5.16-4.75-6.84-10.25-18.46-9.57l4.78-6.84s6.15-2.05,15,4.78c7.29,5.61,19.14,8.89,28.71-11.62Z"/><path class="cls-3" d="M71.73,295.12c7,2.4,14-4.41,14.9-11.77S82.08,269.92,74.72,269c-9.23-1.15-22.17,11.35-14.76,11.21C64.47,280.13,62.19,291.85,71.73,295.12Z"/><path class="cls-4" d="M258.68,214.14s1.37,26,22.8,35.6c0,0,12.1,3.07,8.15,12.68-4.53,11-20.58,8.43-20.58,8.43s-24.86-3.54-37.54-25.55"/><path class="cls-3" d="M275.22,271s12-7.33,6.23-21.46c0,0,15.21,4.7,7.93,13.73S275.22,271,275.22,271Z"/><path class="cls-4" d="M140.42,225.77s-8.9-5.25-13,6.84c-1.6,4.73,4.54,25.34,2.73,29.39-5.47,12.3-6.21,19.15-4.78,27.34,2.73,15.72,28,22.56,28,22.56a77,77,0,0,1-4.78,7.52c-4.1,5.47,0,16.41,12.3,17.09,3.2.18,2.87-2.9,6.15-3.42a181.86,181.86,0,0,0,23.24-5.47,274.82,274.82,0,0,0,28-9.57c40.33-15.72,45.12-45.8,45.8-69,.5-17.1-6.84-45.12-6.84-45.12S185.54,221,140.42,225.77Z"/><path class="cls-4" d="M137.69,305.06s8.86,4.39,19.82,8.89c10.72,4.4,18.46,8.89,28,14.35,0,0,14.35,10.25,22.56,7.52,11.92-4,8.89-15.72,8.89-15.72s-2.73-14.35-15-22.56"/><path class="cls-3" d="M216.3,319.41s-7.52,15.72-23.92,11.62c0,0,8.16,7.59,17.09,3.42C219.71,329.67,216.3,319.41,216.3,319.41Z"/><path class="cls-3" d="M150.67,325.57A7,7,0,0,1,150,318c-6.15,4.78-1.31,17.08,10.25,17.77,7.09.42,3.5-3.17,10.94-4.1C162.39,332.29,152.72,328.3,150.67,325.57Z"/><path class="cls-5" d="M226.91,254.62a17.93,17.93,0,1,1-19.51-16.2A17.92,17.92,0,0,1,226.91,254.62Z"/><path class="cls-6" d="M222.52,249.78a.27.27,0,0,0-.32-.13c-.34.08-4.46,6.78-13.13,6.49h0a16,16,0,0,1-4.56-.6l-.72-2.44a1.5,1.5,0,0,0-.71-.91c-.4-.22-.63-.15-.68-.09a.15.15,0,0,0,0,.12l.33,2.66a17.53,17.53,0,0,1-6.59-5.51.26.26,0,0,0-.33.12.47.47,0,0,0,0,.34,13.72,13.72,0,0,0,7.32,8.29l.89,6.45a2.78,2.78,0,0,0,2.85,2.92l4.77.05a2.86,2.86,0,0,0,2.92-2.85l.94-5.31s0-.07,0-.11-.47,0-1.32.56a3.39,3.39,0,0,0-1.14,1.51s-.93,2.2-1.19,3.14a1.29,1.29,0,0,1-1.37.89l-2.56,0a.89.89,0,0,1-.94-.77l-1.53-5.63a15,15,0,0,0,3.65.49h0a13.85,13.85,0,0,0,13.48-9.29A.51.51,0,0,0,222.52,249.78Z"/><path class="cls-4" d="M147.94,255.16s-20.51.68-30.67,20c0,0-7.09,15.21-15.44,6.37s-3.5-24.22-3.5-24.22S105.49,231,132,221.54"/><path class="cls-3" d="M98,266.93s7.06,12.66,19.53,8.24c0,0-7.24,16.19-15.66,6.47S98,266.93,98,266.93Z"/><path class="cls-4" d="M271.14,31.17s38.31,1.61,51.55-26.91a4.11,4.11,0,0,1,7.05-.73C337.46,14,349,39.15,318.69,73.7,269,130.4,271.14,31.17,271.14,31.17Z"/><path class="cls-2" d="M46.88,100.43S59.41,26.64,148.49,6.8C241.84-14,304.48,30.26,317,71.94c0,0,55.63,31,40.71,81.85s-158,78-239.62,73.16S1.41,138.65,46.88,100.43Z"/><path class="cls-7" d="M30.37,124.6s-8.89,8.89-13,17.77c-4,8.62-6.84,21.87,1.37,29.39,13.19,12.09,23.24-7.52,24.61-19.14"/><path class="cls-6" d="M32.42,123.91s-21.87,23.24-10.94,36.91c10,12.45,24.74-6.51,23.24-15"/><path class="cls-4" d="M69,60.86S30.39,65.72,10.09,43.43a3.82,3.82,0,0,0-6.54,1.73C.38,59-3.72,92.46,30.37,112.29,68,134.17,74.23,62.17,69,60.86Z"/><path class="cls-8" d="M324.85,79.24C288.24,68.84,187.32,87.41,127.43,110c-68.06,25.71-86.21,62.77-87.28,71.77,14.31,23.27,41.73,42,78.94,44.22C199.7,230.77,341,204,355.72,153.77,366.54,116.94,339.83,90.63,324.85,79.24Z"/><path class="cls-9" d="M192.69,132.13c6.91,7,4.65,20.57-5,30.4s-23.16,12.17-30.08,5.21-4.66-20.57,5-30.4S185.77,125.17,192.69,132.13Z"/><path class="cls-9" d="M297.36,107.78c-8,2.39-15.61,12-10.34,26.08,4.32,11.51,14.32,18.2,22.28,15.81s13.18-13.57,9.85-25.4S305.31,105.39,297.36,107.78Z"/><circle class="cls-3" cx="174.81" cy="70.32" r="14.03"/><circle class="cls-8" cx="182.12" cy="66.88" r="3.15"/><circle class="cls-3" cx="239.07" cy="59.38" r="14.03"/><circle class="cls-8" cx="246.38" cy="55.94" r="3.15"/><path class="cls-10" d="M232.88,184.88s-24.1,5.34-32.3-9.69"/></g></g></g></svg>